<mxfile host="app.diagrams.net" agent="Mozilla/5.0 (Windows NT 10.0; Win64; x64) AppleWebKit/537.36 (KHTML, like Gecko) Chrome/130.0.0.0 Safari/537.36" version="24.8.1">
  <diagram name="Page-1" id="9AZqfxNSAQDTJWRUlxz5">
    <mxGraphModel dx="1500" dy="757" grid="1" gridSize="10" guides="1" tooltips="1" connect="1" arrows="1" fold="1" page="1" pageScale="1" pageWidth="827" pageHeight="1169" math="0" shadow="0">
      <root>
        <mxCell id="0" />
        <mxCell id="1" parent="0" />
        <mxCell id="qORojct2lztHWQQSkaOx-47" value="" style="rounded=1;whiteSpace=wrap;html=1;absoluteArcSize=1;arcSize=14;strokeWidth=2;" vertex="1" parent="1">
          <mxGeometry x="760" y="10" width="300" height="810" as="geometry" />
        </mxCell>
        <mxCell id="qORojct2lztHWQQSkaOx-46" value="" style="rounded=1;whiteSpace=wrap;html=1;absoluteArcSize=1;arcSize=14;strokeWidth=2;" vertex="1" parent="1">
          <mxGeometry x="220" y="10" width="450" height="810" as="geometry" />
        </mxCell>
        <mxCell id="qORojct2lztHWQQSkaOx-12" value="" style="verticalLabelPosition=bottom;verticalAlign=top;html=1;shape=mxgraph.flowchart.on-page_reference;" vertex="1" parent="1">
          <mxGeometry x="120" y="70" width="30" height="30" as="geometry" />
        </mxCell>
        <mxCell id="qORojct2lztHWQQSkaOx-13" value="" style="line;strokeWidth=2;direction=south;html=1;" vertex="1" parent="1">
          <mxGeometry x="130" y="100" width="10" height="50" as="geometry" />
        </mxCell>
        <mxCell id="qORojct2lztHWQQSkaOx-14" value="" style="line;strokeWidth=2;direction=south;html=1;rotation=89;" vertex="1" parent="1">
          <mxGeometry x="100" y="80" width="70" height="70" as="geometry" />
        </mxCell>
        <mxCell id="qORojct2lztHWQQSkaOx-15" value="" style="line;strokeWidth=2;direction=south;html=1;rotation=45;" vertex="1" parent="1">
          <mxGeometry x="90" y="140" width="70" height="40" as="geometry" />
        </mxCell>
        <mxCell id="qORojct2lztHWQQSkaOx-19" value="" style="line;strokeWidth=2;direction=south;html=1;rotation=-230;" vertex="1" parent="1">
          <mxGeometry x="110" y="140" width="70" height="40" as="geometry" />
        </mxCell>
        <mxCell id="qORojct2lztHWQQSkaOx-20" value="" style="ellipse;whiteSpace=wrap;html=1;" vertex="1" parent="1">
          <mxGeometry x="354" y="25" width="120" height="80" as="geometry" />
        </mxCell>
        <mxCell id="qORojct2lztHWQQSkaOx-21" value="Afficher la console et la liste des formations" style="text;strokeColor=none;align=center;fillColor=none;html=1;verticalAlign=middle;whiteSpace=wrap;rounded=0;" vertex="1" parent="1">
          <mxGeometry x="384" y="50" width="60" height="30" as="geometry" />
        </mxCell>
        <mxCell id="qORojct2lztHWQQSkaOx-22" value="" style="ellipse;whiteSpace=wrap;html=1;" vertex="1" parent="1">
          <mxGeometry x="234" y="160" width="120" height="80" as="geometry" />
        </mxCell>
        <mxCell id="qORojct2lztHWQQSkaOx-23" value="Filtrer par mot clé" style="text;strokeColor=none;align=center;fillColor=none;html=1;verticalAlign=middle;whiteSpace=wrap;rounded=0;" vertex="1" parent="1">
          <mxGeometry x="264" y="185" width="60" height="30" as="geometry" />
        </mxCell>
        <mxCell id="qORojct2lztHWQQSkaOx-24" value="" style="ellipse;whiteSpace=wrap;html=1;" vertex="1" parent="1">
          <mxGeometry x="234" y="270" width="120" height="80" as="geometry" />
        </mxCell>
        <mxCell id="qORojct2lztHWQQSkaOx-25" value="Filtrer par distanciel ou presentiel" style="text;strokeColor=none;align=center;fillColor=none;html=1;verticalAlign=middle;whiteSpace=wrap;rounded=0;" vertex="1" parent="1">
          <mxGeometry x="264" y="295" width="60" height="30" as="geometry" />
        </mxCell>
        <mxCell id="qORojct2lztHWQQSkaOx-26" value="Utilisateur" style="text;strokeColor=none;align=center;fillColor=none;html=1;verticalAlign=middle;whiteSpace=wrap;rounded=0;" vertex="1" parent="1">
          <mxGeometry x="105" y="170" width="60" height="30" as="geometry" />
        </mxCell>
        <mxCell id="qORojct2lztHWQQSkaOx-27" value="" style="ellipse;whiteSpace=wrap;html=1;" vertex="1" parent="1">
          <mxGeometry x="234" y="390" width="120" height="80" as="geometry" />
        </mxCell>
        <mxCell id="qORojct2lztHWQQSkaOx-28" value="Ajouter/Supprimer du panier une formation" style="text;strokeColor=none;align=center;fillColor=none;html=1;verticalAlign=middle;whiteSpace=wrap;rounded=0;" vertex="1" parent="1">
          <mxGeometry x="264" y="415" width="60" height="30" as="geometry" />
        </mxCell>
        <mxCell id="qORojct2lztHWQQSkaOx-29" value="Creer un panier" style="ellipse;whiteSpace=wrap;html=1;" vertex="1" parent="1">
          <mxGeometry x="460" y="460" width="120" height="80" as="geometry" />
        </mxCell>
        <mxCell id="qORojct2lztHWQQSkaOx-31" value="Include" style="html=1;verticalAlign=bottom;endArrow=open;dashed=1;endSize=8;curved=0;rounded=0;exitX=0.987;exitY=0.59;exitDx=0;exitDy=0;exitPerimeter=0;entryX=0;entryY=0.5;entryDx=0;entryDy=0;" edge="1" parent="1" source="qORojct2lztHWQQSkaOx-27" target="qORojct2lztHWQQSkaOx-29">
          <mxGeometry relative="1" as="geometry">
            <mxPoint x="450" y="480" as="sourcePoint" />
            <mxPoint x="370" y="480" as="targetPoint" />
          </mxGeometry>
        </mxCell>
        <mxCell id="qORojct2lztHWQQSkaOx-32" value="Connexion" style="ellipse;whiteSpace=wrap;html=1;" vertex="1" parent="1">
          <mxGeometry x="234" y="530" width="120" height="80" as="geometry" />
        </mxCell>
        <mxCell id="qORojct2lztHWQQSkaOx-33" value="Passer commande" style="ellipse;whiteSpace=wrap;html=1;" vertex="1" parent="1">
          <mxGeometry x="460" y="620" width="120" height="80" as="geometry" />
        </mxCell>
        <mxCell id="qORojct2lztHWQQSkaOx-34" value="Include" style="html=1;verticalAlign=bottom;endArrow=open;dashed=1;endSize=8;curved=0;rounded=0;exitX=0.987;exitY=0.59;exitDx=0;exitDy=0;exitPerimeter=0;entryX=0.043;entryY=0.325;entryDx=0;entryDy=0;entryPerimeter=0;" edge="1" parent="1" target="qORojct2lztHWQQSkaOx-33">
          <mxGeometry relative="1" as="geometry">
            <mxPoint x="352" y="580" as="sourcePoint" />
            <mxPoint x="460" y="643" as="targetPoint" />
          </mxGeometry>
        </mxCell>
        <mxCell id="qORojct2lztHWQQSkaOx-35" value="Creer un client" style="ellipse;whiteSpace=wrap;html=1;" vertex="1" parent="1">
          <mxGeometry x="230" y="700" width="120" height="80" as="geometry" />
        </mxCell>
        <mxCell id="qORojct2lztHWQQSkaOx-36" value="Include" style="html=1;verticalAlign=bottom;endArrow=open;dashed=1;endSize=8;curved=0;rounded=0;exitX=1;exitY=0.625;exitDx=0;exitDy=0;exitPerimeter=0;" edge="1" parent="1" source="qORojct2lztHWQQSkaOx-35" target="qORojct2lztHWQQSkaOx-33">
          <mxGeometry relative="1" as="geometry">
            <mxPoint x="354" y="740" as="sourcePoint" />
            <mxPoint x="467" y="806" as="targetPoint" />
          </mxGeometry>
        </mxCell>
        <mxCell id="qORojct2lztHWQQSkaOx-38" value="Renvoi une liste de formation en base" style="ellipse;whiteSpace=wrap;html=1;" vertex="1" parent="1">
          <mxGeometry x="827" y="25" width="120" height="80" as="geometry" />
        </mxCell>
        <mxCell id="qORojct2lztHWQQSkaOx-39" value="Renvoi une liste des catégories en base" style="ellipse;whiteSpace=wrap;html=1;" vertex="1" parent="1">
          <mxGeometry x="827" y="120" width="120" height="80" as="geometry" />
        </mxCell>
        <mxCell id="qORojct2lztHWQQSkaOx-40" value="Renvoi une liste&lt;div&gt;de formation par&amp;nbsp;&lt;/div&gt;&lt;div&gt;distanciel/presentiel&lt;/div&gt;" style="ellipse;whiteSpace=wrap;html=1;" vertex="1" parent="1">
          <mxGeometry x="827" y="230" width="120" height="80" as="geometry" />
        </mxCell>
        <mxCell id="qORojct2lztHWQQSkaOx-41" value="Demande de conneion" style="ellipse;whiteSpace=wrap;html=1;" vertex="1" parent="1">
          <mxGeometry x="827" y="500" width="120" height="80" as="geometry" />
        </mxCell>
        <mxCell id="qORojct2lztHWQQSkaOx-42" value="Creer une commande" style="ellipse;whiteSpace=wrap;html=1;" vertex="1" parent="1">
          <mxGeometry x="827" y="620" width="120" height="80" as="geometry" />
        </mxCell>
        <mxCell id="qORojct2lztHWQQSkaOx-48" value="" style="endArrow=none;html=1;rounded=0;entryX=0.077;entryY=0.296;entryDx=0;entryDy=0;entryPerimeter=0;exitX=0.5;exitY=0;exitDx=0;exitDy=0;exitPerimeter=0;" edge="1" parent="1" source="qORojct2lztHWQQSkaOx-12" target="qORojct2lztHWQQSkaOx-20">
          <mxGeometry relative="1" as="geometry">
            <mxPoint x="140" y="60" as="sourcePoint" />
            <mxPoint x="280" y="50.00000000000003" as="targetPoint" />
            <Array as="points">
              <mxPoint x="130" y="40" />
            </Array>
          </mxGeometry>
        </mxCell>
        <mxCell id="qORojct2lztHWQQSkaOx-49" value="" style="endArrow=none;html=1;rounded=0;entryX=0;entryY=0.5;entryDx=0;entryDy=0;" edge="1" parent="1" source="qORojct2lztHWQQSkaOx-20" target="qORojct2lztHWQQSkaOx-38">
          <mxGeometry relative="1" as="geometry">
            <mxPoint x="550" y="64.29000000000002" as="sourcePoint" />
            <mxPoint x="710" y="64.29000000000002" as="targetPoint" />
          </mxGeometry>
        </mxCell>
        <mxCell id="qORojct2lztHWQQSkaOx-50" value="" style="endArrow=none;html=1;rounded=0;exitX=0.94;exitY=0.709;exitDx=0;exitDy=0;exitPerimeter=0;" edge="1" parent="1" source="qORojct2lztHWQQSkaOx-22" target="qORojct2lztHWQQSkaOx-38">
          <mxGeometry relative="1" as="geometry">
            <mxPoint x="414" y="215" as="sourcePoint" />
            <mxPoint x="574" y="215" as="targetPoint" />
            <Array as="points" />
          </mxGeometry>
        </mxCell>
        <mxCell id="qORojct2lztHWQQSkaOx-51" value="" style="endArrow=none;html=1;rounded=0;entryX=0;entryY=0.5;entryDx=0;entryDy=0;exitX=0.76;exitY=0.896;exitDx=0;exitDy=0;exitPerimeter=0;" edge="1" parent="1" source="qORojct2lztHWQQSkaOx-20" target="qORojct2lztHWQQSkaOx-39">
          <mxGeometry relative="1" as="geometry">
            <mxPoint x="640" y="160" as="sourcePoint" />
            <mxPoint x="800" y="160" as="targetPoint" />
            <Array as="points">
              <mxPoint x="445" y="170" />
            </Array>
          </mxGeometry>
        </mxCell>
        <mxCell id="qORojct2lztHWQQSkaOx-53" value="" style="endArrow=none;html=1;rounded=0;entryX=0.075;entryY=0.305;entryDx=0;entryDy=0;entryPerimeter=0;exitX=1;exitY=0.5;exitDx=0;exitDy=0;" edge="1" parent="1" source="qORojct2lztHWQQSkaOx-24" target="qORojct2lztHWQQSkaOx-40">
          <mxGeometry relative="1" as="geometry">
            <mxPoint x="370" y="308.57000000000005" as="sourcePoint" />
            <mxPoint x="530" y="308.57000000000005" as="targetPoint" />
            <Array as="points">
              <mxPoint x="370" y="250" />
              <mxPoint x="450" y="250" />
            </Array>
          </mxGeometry>
        </mxCell>
        <mxCell id="qORojct2lztHWQQSkaOx-54" value="" style="endArrow=none;html=1;rounded=0;exitX=1;exitY=0.5;exitDx=0;exitDy=0;" edge="1" parent="1" source="qORojct2lztHWQQSkaOx-32" target="qORojct2lztHWQQSkaOx-41">
          <mxGeometry relative="1" as="geometry">
            <mxPoint x="365" y="569.58" as="sourcePoint" />
            <mxPoint x="525" y="569.58" as="targetPoint" />
            <Array as="points">
              <mxPoint x="380" y="560" />
            </Array>
          </mxGeometry>
        </mxCell>
        <mxCell id="qORojct2lztHWQQSkaOx-55" value="" style="endArrow=none;html=1;rounded=0;exitX=1;exitY=0.5;exitDx=0;exitDy=0;" edge="1" parent="1" source="qORojct2lztHWQQSkaOx-33" target="qORojct2lztHWQQSkaOx-42">
          <mxGeometry relative="1" as="geometry">
            <mxPoint x="590" y="659.29" as="sourcePoint" />
            <mxPoint x="750" y="659.29" as="targetPoint" />
          </mxGeometry>
        </mxCell>
        <mxCell id="qORojct2lztHWQQSkaOx-56" value="Include" style="html=1;verticalAlign=bottom;endArrow=open;dashed=1;endSize=8;curved=0;rounded=0;exitX=0.5;exitY=0;exitDx=0;exitDy=0;entryX=0.5;entryY=1;entryDx=0;entryDy=0;" edge="1" parent="1" source="qORojct2lztHWQQSkaOx-33" target="qORojct2lztHWQQSkaOx-29">
          <mxGeometry relative="1" as="geometry">
            <mxPoint x="520" y="610" as="sourcePoint" />
            <mxPoint x="643" y="545" as="targetPoint" />
          </mxGeometry>
        </mxCell>
      </root>
    </mxGraphModel>
  </diagram>
</mxfile>
